<svg xmlns="http://www.w3.org/2000/svg" version="1.1" xmlns:xlink="http://www.w3.org/1999/xlink" width="124.58" height="143.85001"><svg viewBox="0 0 124.58 143.85001" id="SvgjsSvg1047" version="1.1" xml:space="preserve" width="124.58" height="143.85001" xmlns="http://www.w3.org/2000/svg" xmlns:svg="http://www.w3.org/2000/svg" xmlns:rdf="http://www.w3.org/1999/02/22-rdf-syntax-ns#" xmlns:cc="http://creativecommons.org/ns#" xmlns:dc="http://purl.org/dc/elements/1.1/"><metadata id="SvgjsMetadata1046"><rdf:rdf><cc:work rdf:about=""><dc:format>image/svg+xml</dc:format><dc:type rdf:resource="http://purl.org/dc/dcmitype/StillImage"></dc:type></cc:work></rdf:rdf></metadata><defs id="SvgjsDefs1045"><style type="text/css" id="SvgjsStyle1044">
    line, polyline, path, rect, circle {
      fill: none;
      stroke: #000000;
      stroke-linecap: round;
      stroke-linejoin: round;
      stroke-miterlimit: 10.00;
    }
  </style></defs><rect width="100%" height="100%" style="fill:none;stroke:none;stroke-linecap:round;stroke-linejoin:round;stroke-miterlimit:10" id="SvgjsRect1043" x="-0.954" y="-1.3609837"></rect><rect x="-0.954" y="-1.2209691" width="124.44" height="143.71001" style="fill:none;stroke:none;stroke-width:1.07;stroke-linecap:round;stroke-linejoin:round;stroke-miterlimit:10" clip-path="url(#cpMHwxMjQuNDQxfDE0My44NTd8MC4xNDMxMzc=)" id="SvgjsRect1042"></rect><rect x="-1.094" y="-1.2209691" width="124.58" height="143.85001" style="fill:none;stroke:none;stroke-width:1.07;stroke-linecap:round;stroke-linejoin:round;stroke-miterlimit:10" clip-path="url(#cpMHwxMjQuNDQxfDE0My45OTd8MC4xNDMxMzc=)" id="SvgjsRect1041"></rect><polyline points="2.285 37.429 2.285 106.799 62.105 141.486 121.926 106.799 121.926 37.429 62.105 2.743 2.285 37.429" style="fill:#ffffff;fill-opacity:1;fill-rule:nonzero;stroke:none;stroke-width:4;stroke-linecap:round;stroke-linejoin:round;stroke-miterlimit:10;stroke-opacity:0.99005" clip-path="url(#cpMHwxMjQuNDQxfDE0My45OTd8MC4xNDMxMzc=)" id="SvgjsPolyline1040" transform="translate(-0.95399999,-1.3609688)"></polyline><path id="SvgjsPath1039" clip-path="url(#cpMHwxMjQuNDQxfDE0My45OTd8MC4xNDMxMzc=)" style="fill:#6aade4;fill-opacity:1;fill-rule:nonzero;stroke:none;stroke-width:4;stroke-linecap:round;stroke-linejoin:round;stroke-miterlimit:10;stroke-opacity:1" d="M 46.272031,132.36946 A 31.360003,10.240001 0 0 0 49.557188,132.26399 31.360003,10.240001 0 0 0 55.44,131.68 a 31.360003,10.240001 0 0 0 5.421875,-0.94531 31.360003,10.240001 0 0 0 4.751953,-1.27344 31.360003,10.240001 0 0 0 3.900391,-1.55273 31.360003,10.240001 0 0 0 2.898437,-1.76953 31.360003,10.240001 0 0 0 1.785157,-1.92188 31.360003,10.240001 0 0 0 0.601562,-1.99609 31.360003,10.240001 0 0 0 -0.08008,-0.73047 31.360003,10.240001 0 0 0 -0.238281,-0.72852 31.360003,10.240001 0 0 0 -0.398438,-0.71875 31.360003,10.240001 0 0 0 -0.552734,-0.70898 31.360003,10.240001 0 0 0 -0.707031,-0.69336 31.360003,10.240001 0 0 0 -0.857422,-0.67383 31.360003,10.240001 0 0 0 -1.001953,-0.65429 31.360003,10.240001 0 0 0 -1.142579,-0.62891 31.360003,10.240001 0 0 0 -1.27539,-0.59961 31.360003,10.240001 0 0 0 -1.404297,-0.57031 31.360003,10.240001 0 0 0 -1.527344,-0.53516 31.360003,10.240001 0 0 0 -1.636719,-0.49805 31.360003,10.240001 0 0 0 -1.74414,-0.45898 31.360003,10.240001 0 0 0 -1.837891,-0.41602 31.360003,10.240001 0 0 0 -1.925781,-0.37304 31.360003,10.240001 0 0 0 -2.001953,-0.32813 31.360003,10.240001 0 0 0 -2.06836,-0.27929 31.360003,10.240001 0 0 0 -2.123046,-0.23047 31.360003,10.240001 0 0 0 -2.169922,-0.18164 31.360003,10.240001 0 0 0 -2.203125,-0.12891 31.360003,10.240001 0 0 0 -2.226563,-0.0781 31.360003,10.240001 0 0 0 -2.236328,-0.0254 31.360003,10.240001 0 0 0 -6.117187,0.19532 31.360003,10.240001 0 0 0 -5.884766,0.58398 31.360003,10.240001 0 0 0 -5.419922,0.94531 31.360003,10.240001 0 0 0 -4.753906,1.27344 31.360003,10.240001 0 0 0 -2.953125,1.17578 z"></path><polyline transform="translate(0,3.1186739e-5)" points="2.285 37.429 2.285 106.799 62.105 141.486 121.926 106.799 121.926 37.429 62.105 2.743 2.285 37.429" style="fill:none;fill-opacity:1;fill-rule:nonzero;stroke:#008a00;stroke-width:4;stroke-linecap:round;stroke-linejoin:round;stroke-miterlimit:10;stroke-opacity:0.99005" clip-path="url(#cpMHwxMjQuNDQxfDE0My45OTd8MC4xNDMxMzc=)" id="SvgjsPolyline1038"></polyline><g id="SvgjsG1037"><g id="SvgjsG1036" transform="matrix(1.1755957,0.14581297,-0.14581297,1.1755957,126.9242,-9.7296623)"><path style="fill:#d5d2ca;fill-opacity:1;stroke:#000000;stroke-width:1px;stroke-linecap:butt;stroke-linejoin:round;stroke-opacity:1" d="M -25.6,64 -5.12,51.2 -43.52,28.16 -81.92,51.2 -61.44,64 -43.52,53.76 Z" id="SvgjsPath1035"></path><path style="fill:#005172;fill-opacity:1;stroke:#000000;stroke-width:1px;stroke-linecap:butt;stroke-linejoin:round;stroke-opacity:1" d="M -81.92,51.2 -61.44,64 v 20.48 l 17.92,10.24 v 25.6 l -38.4,-23.04 v -46.08 0 L -61.44,64 v 0" id="SvgjsPath1034"></path><path style="fill:#6aade4;fill-opacity:1;stroke:#000000;stroke-width:1px;stroke-linecap:butt;stroke-linejoin:round;stroke-opacity:1" d="m -25.6,64 v 20.48 l -17.92,10.24 v 25.6 L -5.12,97.28 V 51.2 Z" id="SvgjsPath1033"></path><path style="fill:#d5d2ca;fill-opacity:1;stroke:#000000;stroke-width:1px;stroke-linecap:butt;stroke-linejoin:round;stroke-opacity:1" d="M -61.44,84.48 -43.52,94.72 -25.6,84.48 -43.52,74.24 Z" id="SvgjsPath1032"></path><path style="fill:#00549f;fill-opacity:1;stroke:#000000;stroke-width:1px;stroke-linecap:butt;stroke-linejoin:round;stroke-opacity:1" d="M -43.52,53.76 V 74.24 L -25.6,84.48 V 64 Z" id="SvgjsPath1031"></path><path style="fill:#6aade4;fill-opacity:1;stroke:#000000;stroke-width:1px;stroke-linecap:butt;stroke-linejoin:round;stroke-opacity:1" d="M -43.52,53.76 -61.44,64 v 20.48 l 17.92,-10.24 z" id="SvgjsPath1030"></path></g><path style="fill:#ff7900;fill-opacity:1;stroke-width:0.177575" d="m 39.897344,45.578112 c -3.694951,-2.990428 -6.71365,-5.478871 -6.708205,-5.529872 0.01587,-0.14819 5.600508,-2.399291 6.662056,-2.685346 0.675524,-0.182038 1.509738,-0.217414 2.784471,-0.118081 1.561217,0.121676 1.95156,0.213637 2.745265,0.646738 2.511099,1.370304 2.932166,2.792548 1.218338,4.115179 -0.423914,0.327156 -0.750906,0.621499 -0.726646,0.654097 0.02425,0.03259 0.65329,-0.130875 1.397839,-0.363275 1.265573,-0.39503 1.482784,-0.406578 3.335898,-0.177339 1.821918,0.22543 2.064033,0.298038 2.9945,0.898656 0.603906,0.389824 1.258495,1.013888 1.62254,1.54688 0.554945,0.81249 0.593667,0.958053 0.427337,1.606714 -0.28983,1.130269 -1.218426,1.742445 -5.17342,3.410546 -1.957402,0.825573 -3.627074,1.485565 -3.710389,1.466646 -0.08332,-0.01893 -3.174624,-2.481116 -6.869584,-5.471543 z m 9.142703,1.999425 c 0.87016,-0.355429 1.821369,-0.829143 2.113793,-1.052697 1.485225,-1.135412 -0.01125,-2.92086 -2.570385,-3.066727 -0.931777,-0.05311 -1.433267,0.0604 -3.059898,0.692593 -1.070001,0.415863 -1.982156,0.803302 -2.026996,0.860975 -0.08545,0.109928 3.531211,3.137994 3.804109,3.185004 0.0865,0.01491 0.869218,-0.263718 1.739377,-0.619148 z m -6.142526,-4.965388 c 1.645718,-0.742252 2.05248,-1.204981 1.708143,-1.943146 -0.320142,-0.686285 -1.506468,-1.285624 -2.594948,-1.310985 -0.919016,-0.02141 -4.019118,1.025918 -3.960625,1.338038 0.04229,0.225804 2.83697,2.467515 3.144609,2.522426 0.141251,0.02528 0.907527,-0.247637 1.702821,-0.606333 z m 43.005752,10.195676 c -2.805363,-1.457618 -4.506739,-3.541718 -4.293672,-5.259539 0.239735,-1.932826 3.379502,-4.382793 7.414548,-5.785587 4.098095,-1.42471 7.619962,-1.093448 10.404385,0.978635 1.306296,0.972094 1.950896,1.955844 1.955226,2.983911 0.004,0.913376 -0.20543,1.020431 -1.925817,0.984996 l -1.240828,-0.02556 -0.02022,-0.712296 c -0.04197,-1.478365 -1.459854,-2.526331 -3.79348,-2.80381 -1.762294,-0.20963 -3.179744,0.05592 -5.20665,0.975094 -2.713436,1.230506 -4.171734,2.674093 -4.096842,4.055499 0.06187,1.141115 1.862303,2.856555 3.575507,3.406721 0.347136,0.111479 0.624686,0.254463 0.616786,0.317751 -0.03123,0.250419 -1.924755,1.432366 -2.216603,1.383626 -0.171097,-0.02862 -0.698651,-0.253321 -1.172338,-0.49944 z M 54.791349,43.65382 c -1.703622,-1.397549 -4.729982,-3.856192 -6.725244,-5.463657 l -3.627755,-2.922657 1.226116,-0.526538 c 0.674364,-0.289599 1.352358,-0.474616 1.506648,-0.411142 0.154288,0.06349 2.77301,2.124973 5.819377,4.581134 3.046367,2.456153 5.624593,4.476373 5.729394,4.489372 0.104804,0.013 1.943133,-0.705748 4.085184,-1.597222 2.142052,-0.891474 3.958792,-1.6129 4.037203,-1.603174 0.314716,0.03903 2.024292,1.585418 1.875362,1.696343 -0.377673,0.28132 -10.383181,4.382055 -10.595019,4.342351 -0.12858,-0.02407 -1.627644,-1.187266 -3.331266,-2.58481 z m 22.632325,1.503798 c -1.377398,-0.36661 -2.49924,-0.999757 -3.714339,-2.096285 -1.164533,-1.050904 -1.584496,-1.573321 -1.990158,-2.475696 l -0.235009,-0.522769 1.46429,-0.552028 1.464292,-0.552036 0.344992,0.721213 c 1.003796,2.098488 2.568511,3.376269 4.232137,3.456075 1.119677,0.05371 2.098579,-0.376916 2.34413,-1.031195 0.09578,-0.255284 -0.02603,-1.046572 -0.33902,-2.201793 -0.268713,-0.991804 -0.456111,-2.064968 -0.416442,-2.384792 0.167985,-1.354352 1.474756,-2.570626 3.536859,-3.291924 1.118903,-0.391377 1.350338,-0.406645 3.021461,-0.199371 1.604079,0.198959 1.915265,0.293421 2.738222,0.831401 1.736828,1.135353 2.609871,2.408767 2.686044,3.917843 0.0381,0.754754 -0.246909,0.853954 -2.074067,0.721904 l -1.293972,-0.09348 -0.02306,-0.673174 c -0.03317,-0.967981 -0.409135,-1.647973 -1.183512,-2.140566 -0.850964,-0.54132 -1.678099,-0.648232 -2.613337,-0.337772 -1.435392,0.476428 -1.616798,1.039134 -1.042974,3.235229 0.678727,2.597596 0.210661,3.979551 -1.690548,4.991307 -1.706559,0.908164 -3.483408,1.139121 -5.215995,0.677968 z M 63.430053,37.499571 c -2.949846,-1.094181 -4.007447,-2.874544 -3.432166,-5.777684 0.820843,-4.142385 4.109034,-6.104749 10.022111,-5.981106 3.769365,0.07882 6.685959,1.091576 7.92047,2.750293 0.838511,1.126647 0.963013,1.902163 0.615589,3.834499 -0.237505,1.32086 -0.387637,1.716321 -0.989405,2.605602 -1.522614,2.250118 -4.003733,3.301283 -8.027046,3.400807 -1.653402,0.0409 -4.975357,-0.411714 -6.109551,-0.832428 z m 7.749902,-2.148376 c 2.208979,-0.207903 3.528958,-0.886104 4.241564,-2.179307 0.744727,-1.35149 0.436791,-2.594881 -0.842957,-3.403625 -0.621362,-0.392678 -1.195188,-0.552065 -3.029764,-0.841568 -4.183391,-0.660159 -6.923179,-0.135353 -8.122095,1.555782 -0.869796,1.22689 -0.806292,2.706745 0.152515,3.554431 1.075234,0.950615 4.737084,1.583808 7.600737,1.314287 z" id="SvgjsPath1029"></path><path style="mix-blend-mode:multiply;fill:#005172;fill-opacity:1;stroke:none;stroke-width:1px;stroke-linecap:butt;stroke-linejoin:miter;stroke-opacity:1" d="m 47.36,78.08 c 0,0 5.12,7.68 10.24,5.12 5.12,-2.56 0,-8.96 0,-8.96 0,0 -1.28,-11.52 -6.4,-8.96 -5.12,2.56 -3.84,12.8 -3.84,12.8 z" id="SvgjsPath1028"></path><g id="SvgjsG1027" transform="matrix(0.20013898,0.02482389,-0.02482389,0.20013898,73.217092,66.027682)" style="stroke-width:5.8739;stroke-dasharray:none"><path style="fill:#005172;fill-opacity:1;stroke:#000000;stroke-width:5.8739;stroke-linecap:butt;stroke-linejoin:round;stroke-dasharray:none;stroke-opacity:1" d="m -112.64,5.12 38.4,23.04 v 46.08 l -38.4,-23.04 z" id="SvgjsPath1026"></path><path style="fill:#6aade4;fill-opacity:1;stroke:#000000;stroke-width:5.8739;stroke-linecap:butt;stroke-linejoin:round;stroke-miterlimit:10;stroke-dasharray:none;stroke-opacity:1" d="m -35.84,5.12 -38.4,23.04 v 46.08 l 38.4,-23.04 z" id="SvgjsPath1025"></path><path style="fill:#d5d2ca;fill-opacity:1;stroke:#000000;stroke-width:5.8739;stroke-linecap:butt;stroke-linejoin:round;stroke-dasharray:none;stroke-opacity:1" d="m -112.64,5.12 38.4,23.04 38.4,-23.04 -38.4,-23.04 z" id="SvgjsPath1024"></path></g></g></svg><style>@media (prefers-color-scheme: light) { :root { filter: none; } }
@media (prefers-color-scheme: dark) { :root { filter: none; } }
</style></svg>